# xmcd
# 
# Track frame offsets:
#     150
#     10069
#     24046
#     36742
#     55377
#     71974
#     84853
#     96060
#     114110
#     128957
#     144531
#     158724
#     171968
#     186020
#     202717
#     221845
# 
# Disc length: 3191
# 
# Revision: 4
# Processed by: cddbd v1.5.2PL0 Copyright (c) Steve Scherf et al.
# Submitted via: fre:ac v1.0.17
# 
DISCID=d50c7510
DTITLE=Anne Murray - All of Me [CD2]
DYEAR=2005
DGENRE=Vocal
TTITLE0=Snowbird
TTITLE1=Danny's Song
TTITLE2=A Love Song
TTITLE3=You Won't See Me
TTITLE4=You Needed Me
TTITLE5=I Just Fall In Love Again
TTITLE6=Daydream Believer
TTITLE7=Broken Hearted Me
TTITLE8=Could I Have This Dance
TTITLE9=Shadows In The Moonlight
TTITLE10=A Little Good News
TTITLE11=Just Another Woman In Love
TTITLE12=Another Sleepless Night
TTITLE13=Time Don't Run Out On Me
TTITLE14=Now And Forever (You And Me)
TTITLE15=Nobody Loves Me Like You Do (Duet with Dave Loggins)
EXTD=
EXTT0=
EXTT1=
EXTT2=
EXTT3=
EXTT4=
EXTT5=
EXTT6=
EXTT7=
EXTT8=
EXTT9=
EXTT10=
EXTT11=
EXTT12=
EXTT13=
EXTT14=
EXTT15=
PLAYORDER=
